<svg xmlns="http://www.w3.org/2000/svg" width="361" height="71.287" class="editor-view__logo-preview"><svg width="54" height="54" y="8.643" fill="#ae0055" viewBox="0 0 100 100"><rect width="100%" height="100%" fill="none"/><path xmlns="http://www.w3.org/2000/svg" d="m53.525 62.675.068-.083.116-.074.318-.298.175-.159.228-.175.111-.134.18-.123.301-.307.132-.196.133-.115.307-.422.032-.066.032-.029.163-.251.236-.302.002-.004.351-.298.043-.055.07-.045.466-.441.087-.126.112-.085.429-.509.396-.424.008-.013.016-.013.412-.603.252-.514.308-.458.045-.091.071-.097.389-.704.086-.217.076-.135.229-.626.302-.789.038-.204.088-.225.163-.844.002-.02.004-.013.139-.787.001-.011.003-.007.135-.842.01-.144.014-.043.078-.919.011-.226v-.013l-.004-.852-.004-.881v-.005l-.031-.399-.139-.894-.013-.037-.01-.088-.164-.833v-.006l-.166-.864-.074-.196-.037-.212-.299-.835-.004-.006-.002-.011-.298-.836-.079-.143-.021-.101-.38-.811-.047-.072-.04-.099-.435-.785-.04-.055-.028-.063-.435-.705-.083-.081-.105-.185-.545-.685-.062-.049-.055-.086-.605-.659-.094-.07-.07-.094-.606-.554-.108-.068-.063-.076-.693-.529-.139-.075-.06-.063-.726-.451-.133-.058-.12-.078-.785-.37-.168-.036-.281-.127-.788-.199-.198-.025-.104-.034-.895-.115-.205-.012-.026-.007-.803-.029-.1-.002-.075.001-.905.025-.066.014-.471.055-.809.188-.015.005-.028.004-.892.213-.148.064-.151.027-.891.322-.043.023-.042.009-.891.35-.06.034-.05.01-.865.378-.111.07-.156.064-.759.434-.063.048-.069.031-.828.534-.001.001-.735.462-.136.143-.289.189-.663.636-.58.527-.055.076-.078.055-.579.608-.09.138-.1.082-.526.695-.07.131-.061.057-.42.672-.008.021-.016.019-.448.756-.091.21-.089.154-.309.789-.019.092-.051.107-.226.763-.006.037-.015.034-.224.874-.008.072-.021.049-.167.837-.001.003-.171.872-.047.495-.001.006-.003.963-.003.961-.004.909v.011l.042.477.15.852.13.84.027.079.016.152.213.891.028.064.012.089.238.81.056.117.021.11.291.755.081.14.021.095.373.759.051.075.042.098.457.789.17.224.08.14.49.598.553.719.071.058.064.103.545.607.1.073.075.105.661.61.194.122.104.116.696.478.037.018.018.019.699.449.156.073.149.098.788.366.012.004.023.014.705.31.154.034.222.102.735.195.127.017.084.031.788.142.125.01.047.014.757.082.295.017h.01l.687-.002.006-.002.358-.024.62-.082.039-.013.081.01.346.021h.443l.52-.049.285-.052.121-.044.177-.026.197-.057.184-.031.662-.23.179-.045.265-.134.279-.132.298-.129.409-.252.213-.117zM60.78 29.45l.016.072.075.112.116.236.159.17.07.106.073.048.088.096.134.077.031.047.227.336.018.011.009.013.429.282.328.221.011.003.005.004.688.135.254.052.256-.052.687-.135.005-.004.012-.003.329-.221.137-.09.096-.02.11-.074.226-.104.066-.057.007-.005.086-.039.016-.002.175-.085.014-.011.038-.007.094-.061.107-.032.282-.219.181-.118.093-.048.024-.005.202-.115.384-.201.038-.04.042-.023.012-.01.141-.086.21-.103.226-.152.259-.142.031-.029.041-.012.318-.187.072-.071.175-.095.354-.273.007-.01.017-.008.241-.192.289-.163.012-.012.033-.014.458-.27.086-.087.21-.12.356-.294.406-.258.037-.04.088-.045.487-.356.003-.004.008-.005.446-.326.542-.365.016-.018.038-.017.514-.366.562-.379.067-.076.139-.082.446-.381.469-.314.05-.055.107-.06.469-.375.583-.39.084-.09.165-.102.478-.428.566-.486.071-.097.105-.074.446-.481.442-.453.017-.026.025-.017.516-.559.012-.019.016-.01.377-.425.022-.035.027-.023.351-.425.067-.117.222-.337.208-.443.001-.002.166-.356.179-.298.002-.01.011-.015.259-.697.068-.385v-.003l.07-.4.007-.083.01-.032.041-.37.015-.239-.003-.085-.012-.326-.099-.422-.063-.313-.008-.019-.021-.101-.074-.192-.032-.17-.082-.206-.066-.11-.017-.072-.077-.092-.153-.263-.314-.293-.057-.067-.106-.08-.138-.153-.354-.219-.07-.056-.031-.008-.047-.029-.206-.087-.129-.028-.179-.078-.235-.057-.484-.058-.005-.001h-.197l-.404.039-.179.034-.164.018-.427.129-.21.046-.291.13-.008.006-.01.002-.347.156-.039.027-.03.006-.375.184-.076.068-.1.028-.349.214-.016.015-.037.017-.344.222-.402.189-.056.048-.195.091-.544.352-.01.01-.023.01-.572.381-.008.009-.02.009-.599.41-.018.021-.041.02-.688.502-.734.516-.051.057-.098.057-.686.576-.014.019-.025.014-.656.578-.702.574-.685.547-.108.136-.154.114-.563.641-.559.56-.014.019-.019.013-.579.608-.051.078-.06.047-.47.583-.026.046-.028.022-.409.557-.453.502-.114.184-.095.089-.364.573-.342.492-.372.506-.063.12-.051.051-.256.437-.28.434-.035.075-.027.028-.18.322-.185.241-.015.029-.017.014-.222.311-.035.069-.034.03-.195.313-.008.02-.01.009-.137.232-.031.103-.067.079-.058.126-.042.077-.082.089-.116.237-.075.112-.016.072-.049.099-.089.592.089.593zm33.094 13.714-.001-.011-.008-.102-.009-.035-.011-.152-.006-.033-.001-.01-.004-.046-.04-.144-.044-.296-.102-.217-.035-.125-.059-.08-.062-.133-.284-.326-.066-.087-.024-.015-.023-.027-.509-.33-.065-.029-.146-.086-.012-.003-.015-.013-.323-.112h-.002l-.043-.016-.18-.088-.154-.037-.326-.132-.122-.027-.168-.061-.169-.03-.164-.061-.186-.034-.319-.099-.345-.054-.155-.039-.208-.013-.241-.07-.249-.034-.133-.04-.335-.033-.312-.097-.398-.062-.145-.036-.466-.021-.47-.083-.044-.004-.021-.006-.557-.08-.689-.108-.111-.008-.033-.009-.602-.052-.663-.077-.022-.002-.008-.001-.807-.079-.025-.002-.006-.001-.641-.051-.097-.004-.009-.001-.801-.024-.062-.001h-.011l-.715.004h-.001l-.745.004-.824.004-.768.001-.827.003v.001l-.082.001-.766.031-.008.001-.068.002-.722.054-.699.002-.003.002-.089.001-.685.033-.01.001-.082.004-.642.057-.624.032-.015.003-.092.006-.537.052-.49.006-.019.004-.326.03-.51.091-.05.019-.089.01-.161.039-.195.006-.027.006-.243.019-.396.062h-.002l-.118.018-.181.005-.231.053-.433.08-.101.038-.152.051-.054.027-.102.028-.166.036-.018.013-.023.007-.103.074-.088.025-.14.103-.202.112-.122.129-.111.084-.075.118-.122.132-.031.067-.009.014-.159.289-.024.037-.462.312-.514.76-.188.932.002.003v.067l.191.927.021.03.003.014.035.052.015.056.02.042.377.541.045.037.021.033.092.062.338.278.226.101.103.071.1.019.166.074.075.011.1.067.048.011.014.007.031.007.073.039.063.019.01.006.035.036.092.06.256.12.044.029v.001l.077.051.04.009.011.009.171.118.125.06.083.057.041.05.452.313.006.006.295.247.065.076.2.142.27.139.115.086.019.009.009.012.18.128.1.074.199.103.268.167.209.089h.003l.005.004.178.035.09.061.233.116.077.018.128.073.237.089.076.013.058.025.314.16.108.017.094.041.101.023.063.024.283.052.28.088.107.012.072.019.167.019.251.106.293.039.126.035.176.015.061.012.116.032.114.042.799.146.044.009h.016l.027.004.031.012.374.088.072.009.043.016.318.056.176.015.05.014.075.006.108.031.355.054.167.044.31.022.206.03.267.059.234.026.082.024.339.027.194.008v.001h.44l.356.002.328.001.384.001h.002l.414.002h.004l.331.001h.454l.467-.001h.002l.169-.007.432-.032.088-.023.286-.033.268-.06.338-.047.057-.019.13-.013.349-.075.405-.071.416-.054.073-.023.163-.02.369-.083.076-.031.1-.015.37-.113.423-.097.323-.136.179-.04.404-.193.362-.158.081-.051.055-.013.315-.16.406-.182.394-.164.122-.074.177-.074.371-.218.065-.065.163-.088.27-.202.338-.242h.002l.235-.168.123-.141.207-.145.166-.174.097-.077.056-.073.097-.062.239-.23.159-.229.145-.131.137-.202.104-.145.085-.163.008-.013.059-.06.071-.131.14-.21.16-.231.002-.007.002-.004.174-.867zM32.358 13.246l.031.094.023.182.107.418.093.546.047.132.029.179.165.517.147.599.022.051.01.069.161.536.036.073.013.075.237.64.169.606.061.132.022.113.246.607.231.688.086.166.024.106.295.611.207.599.08.15.024.099.305.635.173.56.099.2.029.123.354.73.074.113.059.126.255.401.166.444.127.224.027.101.353.622.017.017.007.022.3.511.003.004.001.007.253.429.187.387.09.133.066.141.238.356v.001l.135.21.111.238.202.314.031.055.016.171.023.122.099.259.042.211.087.131.065.17.121.142.093.124.081.119.199.295.002.001.001.002.032.021.032.047.041.026.031.042.448.283.225.151.024.006.016.009.038.069.101.096.053.076.103.069.159.15.24.12.113.077.07.013.094.047.59.092.113-.018.025.004.548-.086.085-.042.062-.013.108-.071.225-.112.02-.015.086-.096.129-.088.003-.002.03-.021.203-.303.12-.136.017-.066.052-.077.02-.096.074-.017.051-.034.081-.023.013-.006.092-.019.039-.026.055-.011.124-.07.046-.024.013-.011.052-.029.014-.007.089-.018.094-.065.042-.019.07-.018.006-.006.118-.019.114-.058.089-.02.143-.099.141-.072.013-.004.112-.022.022-.014.024-.005.249-.175.094-.042.105-.098.229-.153.01-.014.014-.01.035-.054.116-.078.046-.068.073-.06.228-.385.128-.19.007-.04.026-.042.14-.779-.014-.078-.013-.204-.006-.043-.005-.016.015-.072-.014-.066v-.02l.003-.079v-.083l-.027-.134v-.086l-.007-.167-.001-.019-.117-.436-.045-.215-.024-.037-.016-.057-.001-.01-.019-.242-.004-.021.001-.028v-.008l-.137-.754-.076-.206-.053-.097-.049-.241-.024-.064-.014-.098-.006-.022-.002-.1.002-.288v-.003l-.089-.607-.062-.138-.019-.087-.01-.016-.041-.327v-.056l-.003-.247v-.004l-.004-.144-.028-.352-.02-.081-.031-.252-.058-.256-.039-.264-.046-.398-.025-.341-.013-.046-.016-.185-.049-.277-.002-.258-.001-.006-.015-.247-.055-.458-.007-.024-.007-.07-.08-.511-.003-.008-.001-.019-.083-.484v-.003l-.001-.01-.078-.467v-.003l-.079-.512-.021-.062-.014-.12-.124-.518-.078-.384-.013-.034-.006-.058-.117-.484-.072-.447-.031-.091-.021-.149-.162-.589-.001-.004-.136-.509-.065-.141-.024-.121-.185-.457-.146-.452-.066-.13-.02-.098-.096-.215-.068-.326-.157-.4-.036-.149-.137-.268-.128-.335-.003-.004-.001-.005-.161-.427-.009-.018-.004-.018-.066-.104-.236-.419-.068-.066-.041-.062-.098-.107-.056-.112-.145-.336-.049-.083-.014-.053-.073-.085-.188-.306-.304-.274-.059-.068-.097-.07-.105-.128-.147-.115-.117-.154-.333-.279-.063-.037-.034-.041-.308-.227-.1-.052-.043-.046-.282-.173-.141-.063-.118-.073-.341-.147-.034-.007-.047-.026-.316-.119-.043-.006-.048-.026-.372-.118-.05-.006-.047-.022-.346-.088-.505-.064-.017-.004-.411-.001-.382-.003L36.633 5h-.014l-.513.062-.317.076-.106.046-.118.02-.29.101-.135.073-.09.02-.21.1-.281.187-.147.082-.044.035-.144.086-.246.248-.472.442-.147.228-.007.02-.01.009-.173.284-.043.098-.031.033-.173.341-.018.07-.067.118-.09.235-.023.124-.062.142-.058.245-.096.265-.026.141-.058.143-.091.428-.041.4-.006.025-.005.438-.007.47v.001l-.004.497v.004l-.005.52-.006.469v.024l.019.301zM6.105 32.897l.031.378.019.072.025.226.082.371.004.008.002.019.109.482.081.194.031.157.189.454.07.117.018.069.271.512.028.029.012.043.215.376.027.028.035.072.299.461.041.038.044.084.327.436.127.107.121.167.381.356.411.384.167.107.087.096.504.336.029.013.012.015.45.281.194.089.149.086.559.214.646.256.109.021.127.057.58.147.464.166.18.031.166.059.504.083.421.155.311.054.24.067.673.052.634.095.618.109.077.007.03.011.698.082.248.015h.618l.645.028.087.001h.69l.099-.001.553-.026.558.001h.608l.229-.012.455-.048.52-.026.055-.013.27-.028.396-.08.324-.02.017-.004.1-.007.429-.048.411-.023.028-.008.157-.01.231-.034h.923l.137-.004.371-.024h.296l.508-.063.207-.052.022-.009.033-.003.054-.016.272-.045.094.002.102.001h.219l.219-.027h.111l.059-.01h.03l.104-.005.004-.001h.03l.084-.005.148-.008.115-.028.275-.028.038-.009.03-.012.052-.007.038-.009.155-.066.057-.012.008-.004.029-.017.11-.022.042-.027.041-.009.01-.006.128-.086.093-.04.09-.081.197-.13.048-.058.04-.027.067-.099.024-.028.056-.053.026-.043.124-.145.098-.218.07-.103.016-.087.065-.139.088-.616-.088-.616-.027-.057.093-.457-.128-.631-.033-.049-.012-.046-.05-.103-.008-.042-.084-.133-.124-.243-.088-.086-.05-.076-.027-.029-.071-.097-.009-.009-.01-.018-.136-.181-.066-.056-.061-.097-.147-.158-.099-.124-.149-.119-.124-.16-.292-.241-.085-.048-.043-.05-.27-.185-.045-.022-.019-.021-.292-.183-.209-.165-.297-.165-.081-.071-.201-.094-.208-.158-.237-.126-.074-.068-.357-.177v-.001l-.444-.217-.399-.206-.46-.252-.076-.02-.152-.087-.334-.129-.413-.221-.058-.015-.04-.036-.562-.256-.04-.01-.058-.033-.551-.214-.477-.195-.532-.27-.078-.018-.136-.075-.632-.23-.628-.278-.08-.017-.113-.057-.648-.209-.708-.262-.021-.004-.026-.014-.756-.255-.026-.004-.027-.011-.758-.228-.057-.008-.048-.021-.728-.171-.001-.001-.757-.174h-.007l-.007-.002-.673-.145-.125-.013-.056-.018-.726-.088-.245-.014h-.002l-.593-.002-.515-.046-.188-.008-.661-.002h-.002l-.207.011-.499.047-.508.001h-.003l-.371.034-.431.076h-.003l-.511.082-.131.046-.183.028-.359.114-.275.068-.077.033-.091.015-.167.056-.085.007-.248.07-.309.056-.1.059-.099.028-.18.135-.116.06-.179.071-.047.043-.063.033-.167.119-.043.012-.059.061-.167.095-.418.447-.061.124-.046.047-.002.004-.04.039-.203.36-.073.11-.007.032-.023.042-.084.236-.051.281-.067.231-.028.285-.007.194v.339l.002.001zm22.463 23.685.156-.234.049-.106.133-.159.035-.1.051-.065.044-.199.002-.005.017-.024.01-.049.118-.328.024-.153.018-.216.004-.031.035-.1.024-.179.006-.078.067-.381v-.041l-.003-.163v-.008l.043-.286.008-.038v-.108l.002-.164v-.018l-.092-.646-.058-.133-.008-.047-.016-.032-.008-.043-.038-.054-.016-.084-.055-.081v-.001l-.031-.046-.125-.264-.05-.074-.033-.029-.005-.012-.051-.075-.1-.091-.16-.241-.011-.007-.008-.012-.277-.188-.153-.105-.111-.101-.052-.014-.106-.073-.021-.004-.018-.013-.351-.07-.491-.111h-.031l-.057-.002h-.192l-.003.002h-.025l-.904.181-.094.064-.194.038-.008.005-.008.003-.162.108-.025.01-.034.008h-.001l-.002.001-.036.024-.039.016-.063.014-.027.018-.103.021-.086.061-.028.007-.023.012-.051.013-.163.147-.015.012-.113.039-.235.122-.12.03-.042.023-.05.035-.029.009-.05.05-.038.026-.082.043-.054.055-.05.035-.094.036-.036.031-.052.026-.074.048-.055.061-.056.032-.072.072-.259.133-.062.062-.021.005-.024.022-.102.049-.074.051-.021.024-.082.084-.481.399-.056.078-.223.131-.008.008-.008.004-.058.068-.078.085-.136.062-.075.021-.055.034-.176.057-.186.095-.101.025-.238.123-.314.137-.066.056-.102.026-.323.179-.287.135-.025.021-.039.011-.406.207-.005.005-.009.003-.406.209-.051.045-.066.019-.49.292-.019.019-.021.007-.381.237-.031.032-.077.038-.236.167-.302.129-.133.082-.071.019-.517.289-.007.007-.009.004-.464.26-.039.039-.106.053-.432.291-.444.277-.017.017-.042.02-.438.291-.001.002-.007.003-.49.326-.429.269-.489.293-.067.067-.159.088-.411.325-.047.056-.078.05-.326.301-.312.211-.061.067-.122.072-.3.253-.353.241-.128.142-.222.159-.28.298-.299.276h-.002l-.386.354-.024.033-.036.025-.333.329-.05.075-.066.051-.307.36-.051.089-.055.047-.226.315-.268.315-.047.078-.05.043-.213.288-.262.347-.136.252-.072.08-.035.067-.063.055-.319.498-.141.317-.026.121-.085.182-.054.203-.044.113-.093.206-.046.21-.129.442-.015.158-.028.13-.047.447v.017l.001.302.014.067.06.354.025.205.045.144.035.229.108.221.044.138.021.026.037.189.055.081.033.097.233.294.132.196.066.064.07.086.092.073.329.314.19.093.098.076.117.027.197.094.082.022.071.031.124.026.17.076.234.059.475.059.025.006.304.001h.016l.661-.105.059-.02.115-.007.239-.059.376-.067.427-.157h.001l.004-.001.51-.184.038-.019.036-.007.44-.172.567-.162.391-.184.109-.03.489-.284.578-.253.023-.015.02-.003.648-.296.066-.042.043-.01.679-.352.021-.017.028-.008.597-.324.032-.032.042-.011.557-.328.582-.318.039-.037.113-.053.543-.351.033-.035.076-.041.464-.34.501-.325.008-.008.018-.011.489-.323.092-.101.185-.117.389-.361.417-.364.042-.056.063-.043.358-.359.018-.027.027-.018.307-.327.292-.231.126-.157.174-.132.299-.351.331-.385.031-.052.036-.032.13-.165.11-.092.133-.167.171-.134.186-.229.147-.147.106-.159.108-.092.121-.17.125-.125.117-.174.115-.1.133-.188v-.001l.125-.177.108-.141.062-.074.136-.135.046-.067.09-.082.194-.317.34-.401.026-.031.004-.005.059-.119.078-.136h.001l.025-.044.009-.006.162-.134.14-.182.176-.139.139-.171.023-.039.119-.102.174-.121.074-.09.085-.072.109-.164.137-.165.042-.095.043-.033.14-.171.127-.225.091-.09.085-.151.011-.023.035-.028.109-.148zm14.178 18.17-.112-.582v-.444l-.001-.385v-.002l-.026-.332-.031-.214v-.894l-.001-.298v-.307l-.002-.247-.001-.276-.001-.248v-.015l-.002-.164-.002-.012-.025-.317-.028-.18-.063-.184-.008-.035-.011-.108-.027-.124-.032-.081-.027-.12-.012-.017-.051-.261-.011-.015-.003-.018-.035-.049-.041-.206-.003-.004-.001-.006-.289-.421-.186-.279-.002-.001-.002-.003-.467-.312-.238-.161-.001-.001h-.002l-.865-.175h-.069l-.489.101-.366.075-.004.003h-.005l-.173.119-.548-.093-.173.008-.048.004-.021.005h-.012l-.015.003h-.05l-.339.071-.283.042-.075.034-.1.02-.067.047-.063.015-.043.022-.041.038-.129.058-.039.043-.012.01-.085.042-.016.014-.007.002-.03.023-.041.013-.045.034-.01.006-.01.002-.074.05h-.004l-.335.226-.201.133-.005.005-.101.069-.077.116-.365.359h-.001l-.001.002-.037.009-.063.059-.08.034-.087.08-.098.056-.027.031-.01.007-.016.02-.031.037-.028.022-.028.033-.008.014-.111.098-.06.11-.08.092-.025.063-.057.061-.109.17-.093.087-.105.163-.132.188-.027.053-.024.025-.155.249-.021.077-.058.063-.062.126-.204.29-.071.142-.049.052-.178.336-.019.074-.081.143-.151.403-.197.424-.012.049-.041.072-.193.507-.231.446-.027.112-.114.235-.165.567-.218.644-.001.002-.233.7-.01.05-.021.049-.194.714-.203.69-.286.763-.013.078-.042.086-.196.725-.266.666-.02.108-.059.13-.216.846-.243.83v.005l-.003.006-.223.799-.002.002-.22.791v.002l-.217.769-.218.699-.019.12-.038.099-.144.756-.004.038-.007.019-.106.679-.128.565-.02.185-.023.073-.058.614-.081.559-.011.136-.008.03-.032.528-.004.099v.004l-.007.466-.006.523-.002.032.004.117.02.38.016.063.029.273.059.286.038.248.186.538.029.127.151.296.102.111.249.387.154.164.105.132.287.23.194.214.223.15.028.013.014.012.279.178.201.092.158.091.314.123.284.053.288.085.264.026.289.048.363.03.382-.032.289-.05.03-.011.058-.005.371-.077.142-.054.158-.028.372-.129.081-.043.067-.014.284-.12.415-.136.148-.077.105-.024.4-.184.163-.106.165-.081.435-.296.062-.069.124-.073.323-.272.354-.279.131-.157.183-.139.334-.387.025-.045.031-.024.295-.372.35-.428.074-.13.213-.321.177-.377.273-.453.041-.095.055-.083.271-.57.003-.002.309-.648.022-.093.081-.154.191-.575.262-.597.027-.139.089-.198.198-.787.001-.003.181-.74.202-.657.031-.21.048-.144.088-.662.172-.577.014-.101.032-.078.141-.704.012-.116.016-.049.072-.598.12-.57.01-.106.017-.051.084-.644.01-.148.006-.024.03-.585.003-.111h.001v-.446l.046-.475.009-.205.002-.001v-.144l.047-.158.087-.613.004-.021.003-.468v-.508l-.001-.382.001-.439v-.015l-.003-.412zm35.293 9.234v-.003l-.054-.343-.043-.128-.029-.202-.069-.241-.061-.338-.191-.522-.044-.184-.029-.057-.018-.093-.157-.412-.048-.211-.094-.201-.051-.223-.123-.297-.042-.195-.215-.48-.071-.114-.017-.066-.215-.399-.034-.047-.025-.056-.178-.299-.125-.302-.259-.433-.094-.169-.215-.274-.205-.327-.071-.067-.088-.157-.299-.38-.035-.028-.029-.051-.302-.353-.078-.061-.062-.092-.331-.33-.003-.001-.001-.003-.36-.356-.039-.026-.026-.036-.36-.333-.005-.002-.004-.004-.333-.305-.067-.041-.039-.051-.447-.361-.015-.008-.008-.011-.392-.306-.118-.067-.175-.134-.398-.226-.029-.013-.028-.02-.411-.217-.432-.264-.189-.083-.149-.091-.486-.199-.082-.015-.101-.052-.43-.135-.42-.176-.012-.002-.02-.01-.431-.17-.074-.015-.087-.043-.403-.125-.368-.16-.029-.007-.04-.023-.43-.169h-.001l-.006-.003-.513-.197-.169-.033-.19-.076-.178-.037-.062-.026-.321-.149-.094-.021-.144-.074-.206-.07-.199-.076-.223-.111-.176-.042-.442-.173-.105-.022-.123-.043-.087-.016-.092-.043-.13-.035-.124-.057-.186-.039-.292-.121-.064-.013-.08-.033-.169-.032-.2-.083-.177-.038-.072-.023-.12-.057-.316-.169-.042-.007-.032-.013-.022-.011-.011-.002-.094-.041-.215-.112-.012-.012-.042-.022-.001-.001-.349-.242-.043-.046-.035-.02-.018-.018-.05-.02-.023-.014-.036-.026-.066-.033-.232-.132-.114-.076-.032-.007-.039-.022-.023-.009-.159-.109-.055-.028-.024-.029-.558-.386-.002-.001-.173-.085-.216-.175-.048-.016-.029-.026-.152-.035-.011-.004-.204-.175-.181-.07-.135-.091-.063-.013h-.001l-.1-.074-.102-.079-.057-.03-.011-.008-.003-.002-.228-.201-.198-.082-.243-.175-.068-.035-.062-.015-.128-.086-.973-.198-.975.198-.795.536-.536.795-.197.974v.082l.075.371.038.259.027.058.057.286.165.246.002.016.004.02.039.107.004.018.021.133.009.019.005.027.033.05.015.028.012.049.028.056.018.018.04.112.051.061.043.084.062.089.122.105.071.137.047.051.02.069.167.279.021.021.008.024.157.251.143.26.052.055.077.153.17.24.118.256.07.081.192.343.234.293.186.357.081.088.151.269.284.353.28.481.061.061.082.156.364.486.297.514.038.037.047.097.413.614.023.019.023.044.443.614.117.102.117.175.431.431.37.521.125.108.127.19.514.511.548.617.038.029.031.046.541.559.026.017.018.028.598.586.128.087.08.095.619.479.561.472.015.008.008.01.687.561.194.111.084.086.564.337.505.374.108.058.048.05.64.397.022.01.009.009.625.372.568.366.125.059.12.082.587.284.614.335.051.014.094.06.54.246.004.001.568.262.466.233.056.015.092.056.485.2.024.005.032.018.395.149.339.146.181.037.261.108.071.014.047.033.318.146.223.049.472.157.078.01.068.018.365.047.011.004.207.035.241.02.047.012.115.007.124.001.251-.012.212-.02.134-.039.294-.04.163-.069.115-.018.344-.16.161-.055.056-.046.085-.04.53-.461.001-.002.003-.003.011-.02.284-.439.015-.016.018-.034.05-.078.093-.207v-.002l.026-.047.14-.256.008-.04.02-.04.089-.294.013-.086.033-.074.06-.265.004-.027.008-.02.058-.292.053-.508v-.304l-.037-.432zm6.092-18.901v-.001l-.005-.124-.006-.147-.005-.208v-.001l-.004-.163-.034-.155-.079-.445-.049-.137-.001-.001-.001-.003-.004-.011-.274-.501-.006-.005-.004-.008-.055-.071-.055-.101-.022-.077-.116-.181-.1-.168-.119-.117-.104-.15-.004-.017-.039-.046-.034-.048-.046-.045-.424-.498-.191-.139-.203-.163-.091-.09-.185-.206-.558-.409-.029-.024-.014-.005v-.002l-.142-.063-.151-.123v-.001l-.309-.249-.138-.078-.06-.063-.284-.171-.282-.214-.216-.117-.068-.061-.398-.197-.016-.004-.012-.008-.39-.182-.357-.178-.263-.186v-.002h-.001l-.011-.008-.483-.242-.003-.002-.004-.001-.418-.132-.416-.194-.068-.016-.101-.054-.553-.188-.003-.001-.564-.193-.005-.002-.01-.002-.618-.202-.452-.175-.535-.249-.15-.034-.287-.105-.439-.075-.388-.152-.053-.008-.06-.031-.36-.109-.224-.126-.098-.025-.299-.136-.462-.121-.383-.12-.018-.003-.019-.009-.284-.08-.17-.067-.272-.053-.098-.025-.018-.012-.261-.071-.047-.035-.597-.167-.173-.015-.134-.004-.095.015-.071-.013-.62.125-.083.056-.172.032-.354.058-.076.04-.067.014-.011.008-.013.003-.143.098-.253.133-.111.112-.412.28-.028.027-.004.005-.039.038-.004.007-.009.005-.069.104-.094.063-.126.19-.092.06-.15.223-.056.051-.008.028-.089.084-.028.107-.101.15-.01.044-.091.131-.069.075-.032.066-.004.018-.008.013-.006.028-.027.039-.005.03-.028.039-.005.02-.014.022-.001.005-.003.003-.069.351-.083.361-.002.058v.008l-.001.04-.003.014.158.786.353.524.04.243.023.068.015.028.043.217.001.001v.001l.071.103.124.184.015.022.01.05.045.066.007.035.003.002v.003l.077.113.018.065.065.059.088.129.107.212.039.04.028.048.04.036.079.174.046.041.051.117.149.161.087.133.08.083.007.004.005.008.019.013.057.057.001.004.016.018.009.018.026.031.021.042.049.075.118.107.032.048.081.073.117.132.054.032.075.085.054.062.02.035.079.106.178.147.045.05.051.061.134.199.139.136.073.048.072.094.1.079.086.125.084.081.191.123.098.107.174.113.064.03.026.026.03.015.027.023.086.046.077.062.029.033.045.029.179.145h.001l.001.001.178.087.015.002.506.286.023.008.263.098.001.001.171.065.124.056.103.065.151.069.133.081.3.125.297.139.321.158.101.025.178.09.33.101.205.094.297.147v.001l.399.199.103.025.195.096.271.083.194.082.214.098.194.123.359.165.065.034.082.076.209.096.131.088.107.021.138.064.428.114.04.005.031.012.058.014.112.051.18.039.479.132.263.022.207.036.127.012.041.012.221.019.22.039.354.032h.009l.302-.001.246-.001.005-.001.434-.048.116-.027.18-.016.149-.043.262-.042.194-.059.184-.044.041-.018.057-.008.288-.082.171-.08.118-.026.179-.081.012-.01.023-.005.179-.084.052-.048.199-.094.142-.093.05-.02.071-.059.031-.02.018-.021.045-.008.018-.01.102-.03.182-.113.095-.1.206-.13.155-.146.266-.373.041-.035.092-.124.009-.011.003-.006.027-.037.079-.151.08-.103.016-.053.071-.103.128-.157.012-.052.037-.055.149-.734-.003-.094z"/></svg><svg width="285" height="44.165" x="70" y="4" fill="#ae0055" viewBox="0 0 285.973 44.315"><rect width="100%" height="100%" fill="none"/><path xmlns="http://www.w3.org/2000/svg" d="M0 1.8h8.8l8.41 23.72L25.56 1.8h8.85v32.7h-6.76v-8.94l.67-15.43L19.5 34.5h-4.63L6.06 10.15l.68 15.41v8.94H0V1.8zm54.6 32.7-.18-2.47q-2.4 2.92-6.65 2.92-3.9 0-5.96-2.25-2.05-2.24-2.1-6.58V10.2h6.49v15.7q0 3.79 3.46 3.79 3.3 0 4.54-2.29V10.2h6.51v24.3H54.6zM72.46 0v34.5h-6.51V0h6.51zm9.9 10.2 4.52 15.11 4.49-15.11h6.96l-9.77 28.07-.54 1.28q-2.17 4.77-7.18 4.77-1.42 0-2.88-.43v-4.92l.99.02q1.84 0 2.75-.56.91-.56 1.43-1.86l.76-2-8.51-24.37h6.98zm38.84 24.3h-6.56q-.45-.88-.65-2.18-2.36 2.63-6.13 2.63-3.57 0-5.92-2.07-2.35-2.06-2.35-5.21 0-3.86 2.87-5.93 2.86-2.06 8.27-2.09h2.99v-1.39q0-1.68-.87-2.69-.86-1.02-2.72-1.02-1.64 0-2.58.79-.93.79-.93 2.16h-6.49q0-2.11 1.3-3.91 1.31-1.8 3.69-2.82 2.38-1.02 5.34-1.02 4.5 0 7.13 2.26 2.64 2.25 2.64 6.34v10.53q.03 3.46.97 5.24v.38zm-11.93-4.51q1.44 0 2.65-.64 1.22-.64 1.8-1.72v-4.18h-2.43q-4.87 0-5.18 3.37l-.03.38q0 1.21.86 2 .85.79 2.33.79zm20.19-19.79 4.52 16.37 4.51-16.37h6.79l-8.2 24.3h-6.2l-8.2-24.3h6.78zm38.97 24.3h-6.55q-.45-.88-.66-2.18-2.35 2.63-6.13 2.63-3.57 0-5.92-2.07-2.34-2.06-2.34-5.21 0-3.86 2.86-5.93 2.86-2.06 8.28-2.09h2.99v-1.39q0-1.68-.87-2.69-.86-1.02-2.73-1.02-1.64 0-2.57.79-.93.79-.93 2.16h-6.49q0-2.11 1.3-3.91 1.3-1.8 3.68-2.82 2.38-1.02 5.35-1.02 4.49 0 7.13 2.26 2.64 2.25 2.64 6.34v10.53q.02 3.46.96 5.24v.38zm-11.92-4.51q1.44 0 2.65-.64t1.8-1.72v-4.18h-2.43q-4.87 0-5.19 3.37l-.02.38q0 1.21.85 2 .86.79 2.34.79zm29.69-19.95-.09 6.24q-1.32-.18-2.33-.18-3.69 0-4.83 2.5v15.9h-6.49V10.2h6.13l.18 2.89q1.95-3.34 5.41-3.34 1.08 0 2.02.29zm1.6 12.13q0-5.68 2.55-9.05 2.54-3.37 6.97-3.37 3.55 0 5.86 2.65V0h6.52v34.5h-5.87l-.31-2.58q-2.43 3.03-6.25 3.03-4.29 0-6.88-3.38t-2.59-9.4zm6.49.47q0 3.41 1.19 5.23 1.19 1.82 3.46 1.82 3.01 0 4.24-2.53v-9.6q-1.21-2.53-4.2-2.53-4.69 0-4.69 7.61zM221.06 0v12.85q2.58-3.1 6.49-3.1 7.91 0 8.02 9.18V34.5h-6.49V19.11q0-2.08-.9-3.08t-2.99-1q-2.85 0-4.13 2.2V34.5h-6.49V0h6.49zm40.05 34.5h-6.56q-.45-.88-.65-2.18-2.36 2.63-6.13 2.63-3.57 0-5.92-2.07-2.35-2.06-2.35-5.21 0-3.86 2.86-5.93 2.87-2.06 8.28-2.09h2.99v-1.39q0-1.68-.87-2.69-.86-1.02-2.72-1.02-1.64 0-2.58.79-.93.79-.93 2.16h-6.49q0-2.11 1.3-3.91 1.31-1.8 3.69-2.82 2.38-1.02 5.34-1.02 4.49 0 7.13 2.26 2.64 2.25 2.64 6.34v10.53q.03 3.46.97 5.24v.38zm-11.93-4.51q1.44 0 2.65-.64t1.8-1.72v-4.18h-2.43q-4.87 0-5.19 3.37l-.02.38q0 1.21.86 2 .85.79 2.33.79zm15.81-19.79h6.11l.21 2.8q2.6-3.25 6.98-3.25 3.86 0 5.75 2.27 1.89 2.27 1.93 6.78v15.7h-6.49V18.96q0-2.07-.9-3-.9-.93-2.98-.93-2.74 0-4.11 2.33V34.5h-6.5V10.2z"/></svg><svg width="291" height="19.122" x="70" y="52.165" fill="#4b3ab3" viewBox="0 0 291.582 19.16"><rect width="100%" height="100%" fill="none"/><path xmlns="http://www.w3.org/2000/svg" d="M7.96.78h2.94v9.37q0 2.33-1.46 3.69-1.46 1.36-3.99 1.36-2.49 0-3.96-1.32Q.03 12.56 0 10.25V.78h2.93v9.39q0 1.39.67 2.03.67.64 1.85.64 2.47 0 2.51-2.6V.78zm5.1 3.65h2.65l.09 1.22q1.13-1.41 3.04-1.41 1.68 0 2.5.98.82.99.84 2.95V15h-2.82V8.24q0-.9-.4-1.3-.39-.41-1.29-.41-1.2 0-1.79 1.02V15h-2.82V4.43zM27.29 0v15h-2.83V0h2.83zm1.89 9.75v-.13q0-1.57.61-2.8.6-1.23 1.74-1.91 1.14-.67 2.64-.67 2.14 0 3.49 1.31t1.51 3.55l.02.72q0 2.44-1.36 3.91-1.36 1.47-3.64 1.47-2.29 0-3.65-1.47-1.36-1.46-1.36-3.98zm2.82.07q0 1.51.57 2.3.56.8 1.62.8 1.02 0 1.6-.79.58-.78.58-2.51 0-1.48-.58-2.29t-1.62-.81q-1.04 0-1.6.81-.57.8-.57 2.49zm13.32 3.1q.78 0 1.27-.43t.51-1.14h2.65q-.01 1.07-.59 1.97-.58.89-1.58 1.38-1 .5-2.21.5-2.26 0-3.57-1.45-1.31-1.44-1.31-3.97v-.19q0-2.44 1.3-3.9 1.3-1.45 3.56-1.45 1.98 0 3.18 1.13 1.2 1.12 1.22 3H47.1q-.02-.82-.51-1.33-.49-.52-1.29-.52-.98 0-1.49.72-.5.72-.5 2.33v.29q0 1.63.5 2.35.5.71 1.51.71zM57.91 15l-2.71-4.24-1.02 1.02V15h-2.82V0h2.82v8.31l.55-.7 2.7-3.18h3.39L57 8.84 61.15 15h-3.24zm7.11-10.57V15h-2.83V4.43h2.83zm-3-2.73q0-.64.43-1.05.42-.41 1.15-.41t1.16.41q.43.41.43 1.05 0 .64-.44 1.05-.43.41-1.15.41-.71 0-1.14-.41-.44-.41-.44-1.05zm5.27 2.73h2.65l.09 1.22q1.13-1.41 3.04-1.41 1.68 0 2.5.98.82.99.84 2.95V15h-2.83V8.24q0-.9-.39-1.3-.39-.41-1.3-.41-1.19 0-1.78 1.02V15h-2.82V4.43zm10.84 5.33v-.12q0-2.43 1.16-3.92 1.16-1.48 3.12-1.48 1.74 0 2.71 1.19l.11-1h2.56v10.22q0 1.39-.63 2.41-.63 1.03-1.77 1.56-1.14.54-2.68.54-1.16 0-2.26-.46-1.1-.47-1.67-1.2l1.25-1.72q1.05 1.18 2.56 1.18 1.12 0 1.75-.6.62-.6.62-1.7v-.57q-.98 1.11-2.57 1.11-1.9 0-3.08-1.49-1.18-1.49-1.18-3.95zm2.83.08q0 1.44.57 2.25.58.82 1.59.82 1.28 0 1.84-.97V7.5q-.57-.97-1.83-.97-1.01 0-1.59.83-.58.83-.58 2.48zM103.92 15h-2.86q-.19-.38-.28-.95-1.02 1.15-2.66 1.15-1.56 0-2.58-.9t-1.02-2.27q0-1.68 1.25-2.58 1.24-.9 3.6-.91h1.29v-.6q0-.73-.37-1.17-.38-.44-1.19-.44-.71 0-1.12.34-.4.34-.4.94h-2.82q0-.92.56-1.7.57-.78 1.6-1.23 1.04-.44 2.33-.44 1.95 0 3.1.98 1.15.98 1.15 2.76v4.58q.01 1.5.42 2.27V15zm-5.19-1.96q.63 0 1.15-.28.53-.28.78-.75V10.2h-1.05q-2.12 0-2.26 1.46l-.01.17q0 .52.37.87.38.34 1.02.34zm6.88-8.61h2.65l.09 1.22q1.13-1.41 3.04-1.41 1.68 0 2.5.98.82.99.84 2.95V15h-2.83V8.24q0-.9-.39-1.3-.39-.41-1.3-.41-1.19 0-1.78 1.02V15h-2.82V4.43zm10.82 5.21q0-2.47 1.1-3.94 1.11-1.46 3.04-1.46 1.54 0 2.55 1.15V0h2.83v15h-2.55l-.14-1.12q-1.05 1.32-2.71 1.32-1.87 0-3-1.47-1.12-1.47-1.12-4.09zm2.82.2q0 1.49.52 2.28.51.79 1.5.79 1.31 0 1.85-1.1V7.64q-.53-1.11-1.83-1.11-2.04 0-2.04 3.31zM133.3.78h3.83l3.65 10.31L144.41.78h3.85V15h-2.94v-3.89l.3-6.71-3.84 10.6h-2.01l-3.83-10.59.29 6.7V15h-2.93V.78zM159.61 15h-2.85q-.2-.38-.29-.95-1.02 1.15-2.66 1.15-1.55 0-2.57-.9-1.03-.9-1.03-2.27 0-1.68 1.25-2.58 1.25-.9 3.6-.91h1.3v-.6q0-.73-.38-1.17-.37-.44-1.19-.44-.71 0-1.11.34-.41.34-.41.94h-2.82q0-.92.57-1.7.56-.78 1.6-1.23 1.03-.44 2.32-.44 1.95 0 3.1.98 1.15.98 1.15 2.76v4.58q.01 1.5.42 2.27V15zm-5.19-1.96q.63 0 1.16-.28.52-.28.78-.75V10.2h-1.06q-2.12 0-2.25 1.46l-.01.17q0 .52.37.87.37.34 1.01.34zm9.22-8.61 1.74 3.16 1.78-3.16h3.02l-3.01 5.18L170.3 15h-3.02l-1.89-3.32-1.87 3.32h-3.04l3.13-5.39-2.99-5.18h3.02zm10.87 0V15h-2.83V4.43h2.83zm-3-2.73q0-.64.43-1.05.42-.41 1.16-.41.72 0 1.15.41.43.41.43 1.05 0 .64-.44 1.05-.43.41-1.14.41-.72 0-1.15-.41-.44-.41-.44-1.05zm5.33 2.73h2.64l.09 1.19q1.12-1.38 3.04-1.38 2.04 0 2.8 1.61 1.11-1.61 3.17-1.61 1.72 0 2.56 1 .84 1 .84 3.01V15h-2.83V8.26q0-.9-.35-1.31-.35-.42-1.24-.42-1.27 0-1.76 1.21l.01 7.26h-2.82V8.27q0-.92-.36-1.33-.36-.41-1.23-.41-1.2 0-1.74 1V15h-2.82V4.43zm20.29 0V15h-2.83V4.43h2.83zm-3-2.73q0-.64.43-1.05.42-.41 1.15-.41t1.16.41q.42.41.42 1.05 0 .64-.43 1.05-.43.41-1.15.41-.71 0-1.14-.41-.44-.41-.44-1.05zm13.58 4.4-5.01 6.62h5.16V15h-8.77v-1.72l4.97-6.56h-4.82V4.43h8.47V6.1zm4.9-1.67V15h-2.83V4.43h2.83zm-3-2.73q0-.64.42-1.05.43-.41 1.16-.41.72 0 1.15.41.43.41.43 1.05 0 .64-.43 1.05-.44.41-1.15.41t-1.15-.41q-.43-.41-.43-1.05zm5.26 2.73h2.66l.09 1.22q1.13-1.41 3.03-1.41 1.68 0 2.5.98.82.99.84 2.95V15h-2.82V8.24q0-.9-.39-1.3-.39-.41-1.3-.41-1.19 0-1.78 1.02V15h-2.83V4.43zm10.85 5.33v-.12q0-2.43 1.16-3.92 1.16-1.48 3.12-1.48 1.74 0 2.71 1.19l.11-1h2.56v10.22q0 1.39-.63 2.41-.63 1.03-1.77 1.56-1.14.54-2.68.54-1.16 0-2.26-.46-1.11-.47-1.67-1.2l1.25-1.72q1.05 1.18 2.56 1.18 1.12 0 1.74-.6.63-.6.63-1.7v-.57q-.98 1.11-2.57 1.11-1.9 0-3.08-1.49-1.18-1.49-1.18-3.95zm2.82.08q0 1.44.58 2.25.58.82 1.58.82 1.29 0 1.85-.97V7.5q-.57-.97-1.83-.97-1.01 0-1.59.83-.59.83-.59 2.48zM244.77.78l3.2 10.69L251.19.78h3.26L249.5 15h-3.05L241.51.78h3.26zM264.13 15h-2.85q-.2-.38-.28-.95-1.03 1.15-2.67 1.15-1.55 0-2.57-.9-1.02-.9-1.02-2.27 0-1.68 1.24-2.58 1.25-.9 3.6-.91h1.3v-.6q0-.73-.38-1.17-.37-.44-1.18-.44-.72 0-1.12.34-.41.34-.41.94h-2.82q0-.92.57-1.7.56-.78 1.6-1.23 1.03-.44 2.32-.44 1.96 0 3.1.98 1.15.98 1.15 2.76v4.58q.01 1.5.42 2.27V15zm-5.18-1.96q.62 0 1.15-.28.53-.28.78-.75V10.2h-1.06q-2.11 0-2.25 1.46l-.01.17q0 .52.37.87.37.34 1.02.34zM268.86 0v15h-2.83V0h2.83zm8.73 15-.08-1.07q-1.05 1.27-2.89 1.27-1.7 0-2.59-.98-.9-.98-.92-2.86V4.43h2.83v6.83q0 1.65 1.5 1.65 1.44 0 1.97-1V4.43h2.83V15h-2.65zm9.65.2q-2.33 0-3.79-1.43t-1.46-3.8V9.7q0-1.59.62-2.85.61-1.25 1.74-1.93 1.13-.68 2.57-.68 2.17 0 3.42 1.37 1.24 1.36 1.24 3.87v1.15h-6.73q.14 1.04.83 1.66.69.63 1.74.63 1.63 0 2.55-1.18l1.39 1.55q-.64.9-1.72 1.4-1.09.51-2.4.51zm-.33-8.68q-.84 0-1.36.57-.52.57-.67 1.62h3.93v-.22q-.02-.94-.51-1.45-.49-.52-1.39-.52z"/></svg></svg>